<?xml version="1.0" encoding="utf-8"?>
<!-- Generator: Adobe Illustrator 25.2.1, SVG Export Plug-In . SVG Version: 6.00 Build 0)  -->
<svg version="1.1" id="Layer_1" xmlns="http://www.w3.org/2000/svg" xmlns:xlink="http://www.w3.org/1999/xlink" x="0px" y="0px"
	 viewBox="0 0 436.4 178.2" style="enable-background:new 0 0 436.4 178.2;" xml:space="preserve">
<style type="text/css">
	.st0{fill:#FFFFFF;}
</style>
<g>
	<g>
		<path class="st0" d="M179,37.6l17.4-4.8c-1.6-4.1-4.6-11.2-9.7-11.2c-6.7,0-8.7,11.2-8.5,16.2L179,37.6z M208.4,58.1
			c-5.5,5.1-12.8,7.9-20.4,7.9C174.2,66,167,55.9,167,42.9c0-13,7.8-24.7,21.8-24.7c9.9,0,15.3,6.7,19.2,15l-29.6,7.8
			c0.5,9.8,4.2,19.4,15.6,19.4c5,0,9.1-1.8,12.9-4.8L208.4,58.1z"/>
		<path class="st0" d="M246.7,27.9c0,0.7-0.5,1.2-1.2,1.2c-0.9,0-1.2-0.7-1.6-1.5c-1.8-4.1-7.3-5.4-11.3-5.4c-3.9,0-9.5,1.8-9.5,6.6
			c0,9.8,26.9,4.5,26.9,21.2c0,11.8-12.8,16-22.5,16c-4.4,0-9-0.6-13.1-2.1l-1.5-8.1c-0.2-1.4,0.3-2.3,1.6-2.3
			c1.3,0,1.5,0.8,1.9,2.2c1.2,4.5,7.7,6.3,12.3,6.3c4.9,0,12-1.9,12-7.9c0-10.3-26.9-4.4-26.9-21.2c0-7.8,7.8-14.6,19.8-14.6
			c4.2,0,8.7,0.6,12.4,2.4L246.7,27.9z"/>
		<path class="st0" d="M283.1,62.2c-3.9,2.4-9.3,3.9-13.8,3.9c-8.7,0-11.3-3.8-11.3-12V23h-3.7c-1,0-2-0.1-2-1.1
			c0-0.8,2-2.3,14.5-13.3h2.1v11.3h10.5c-0.2,3.1-0.7,3.1-2.3,3.1h-8.2v28.1c0,6,0.5,10,6.5,10c2.1,0,4.4-0.6,6.3-1.5L283.1,62.2z"
			/>
		<path class="st0" d="M296.8,37.6l17.4-4.8c-1.6-4.1-4.6-11.2-9.7-11.2c-6.7,0-8.7,11.2-8.5,16.2L296.8,37.6z M326.2,58.1
			c-5.5,5.1-12.8,7.9-20.4,7.9c-13.9,0-21.1-10.1-21.1-23.1c0-13,7.8-24.7,21.8-24.7c9.9,0,15.4,6.7,19.2,15l-29.6,7.8
			c0.5,9.8,4.2,19.4,15.5,19.4c5,0,9.1-1.8,12.9-4.8L326.2,58.1z"/>
		<path class="st0" d="M349.8,27.6c5.2-5.5,8.4-9.4,13.6-9.4c1.9,0,3.8,0.8,5.1,2.2l-1.2,6.8c-0.3,2-0.5,2.7-1.6,2.7
			c-2.1,0-0.7-3.5-6.2-3.5c-4,0-7,2.4-9.7,5v15.4c0,12.1,0.4,14.5,3.3,14.5h5.4v3.1h-25.4v-3.1h3.8c1.1,0,1.9-0.1,1.9-1.7V38.3
			c0-10.5,0-15.1-3.5-15.1h-4.4V20c6.3-0.5,12.6-0.9,18.9-1.8V27.6z"/>
		<path class="st0" d="M392.7,25.7c5.6-4.2,10.8-7.5,16.4-7.5c8.2,0,12.6,4.9,12.6,14.4v14.1c0,12.1,0.4,14.5,3.3,14.5h4v3.1H406
			v-3.1h2.9c1.2,0,1.9-0.1,1.9-1.7V37.8c0-7.1,0-13-7.7-13c-3.6,0-7.3,2-10.3,4.8v17.1c0,12.1,0.4,14.5,3.3,14.5h3.6v3.1h-23.6v-3.1
			h3.8c1.1,0,1.9-0.1,1.9-1.7V38.2c0-10.5,0-15.1-3.5-15.1h-4.4V20c6.3-0.5,12.6-0.9,18.9-1.8L392.7,25.7L392.7,25.7z"/>
		<path class="st0" d="M170.8,116.9l-1.9,0.7c-6.1,2.4-12.9,6.4-12.9,12.6c0,3.1,1.7,5.5,5,5.5c3.8,0,7.2-2.4,9.7-5.1L170.8,116.9
			L170.8,116.9z M170.8,113.1v-3c0-6.6-0.2-10.6-7.1-10.6c-2.4,0-5.1,0.7-7.1,2.1c0,5.7-2.5,10.4-7.1,10.4c-1.9,0-3.7-1.4-3.7-3.3
			c0-8.2,14-13.5,23.3-13.5c11.6,0,12.6,3.2,12.6,14.6V126c0,8.1,1.2,9.9,7.3,11l-4.1,6.2c-2.7,0-10.1-0.3-13.4-8.6
			c-4.3,3.4-10.9,8.6-16.7,8.6c-6.1,0-9.8-4.3-9.8-10.2c0-10.1,12.7-14.4,20.4-17.5L170.8,113.1z"/>
		<path class="st0" d="M209.3,104.7c5.2-5.5,8.4-9.4,13.6-9.4c1.9,0,3.8,0.8,5.1,2.2l-1.2,6.8c-0.3,2-0.5,2.7-1.6,2.7
			c-2.1,0-0.7-3.6-6.2-3.6c-4,0-7,2.4-9.7,5v15.3c0,12.1,0.4,14.5,3.3,14.5h5.4v3.1h-25.4v-3.1h3.8c1.1,0,1.9-0.1,1.9-1.7v-21.3
			c0-10.5,0-15.1-3.6-15.1h-4.4V97c6.3-0.5,12.6-0.9,18.9-1.8L209.3,104.7L209.3,104.7z"/>
		<path class="st0" d="M253.5,139.6c9,0,10.3-9.7,10.3-16.6c0-8.2-2.4-24.3-13.6-24.3c-9,0-10.3,9.8-10.3,16.7
			C239.9,123.7,242.3,139.6,253.5,139.6 M275.2,118c0,14.3-10.5,25-24.5,25c-13.6,0-22.1-8.9-22.1-22.8c0-14.3,10.6-25,24.5-25
			C266.6,95.3,275.2,104.1,275.2,118"/>
		<path class="st0" d="M293.2,123.8c0,12.1,0.4,14.5,3.3,14.5h4.6v3.1h-24.5v-3.1h3.8c1.1,0,1.9-0.1,1.9-1.7V95.8
			c0-16.4-0.9-19.2-3.4-19.2h-4.4v-3.1c6.3-0.6,12.6-2.8,18.8-4.9L293.2,123.8L293.2,123.8z"/>
		<path class="st0" d="M311.5,83.9c0-3.2,2.6-5.6,5.7-5.6c3.2,0,5.8,2.4,5.8,5.6c0,3.3-2.6,5.6-5.8,5.6
			C314,89.6,311.5,87.2,311.5,83.9 M323.5,123.8c0,12.1,0.4,14.5,3.3,14.5h4.6v3.1H307v-3.1h3.8c1.1,0,1.9-0.1,1.9-1.7v-21.3
			c0-10.5,0-15.1-3.5-15.1h-4.4V97c6.3-0.5,12.6-0.9,18.9-1.8V123.8z"/>
		<path class="st0" d="M353.1,102.8c5.6-4.2,10.8-7.5,16.4-7.5c8.2,0,12.6,4.9,12.6,14.4v14.1c0,12.1,0.4,14.5,3.3,14.5h4v3.1h-23.1
			v-3.1h2.9c1.1,0,1.9-0.1,1.9-1.7v-21.7c0-7.1,0-13.1-7.7-13.1c-3.6,0-7.3,2-10.3,4.8v17.1c0,12.1,0.4,14.5,3.3,14.5h3.6v3.1h-23.6
			v-3.1h3.8c1.1,0,1.9-0.1,1.9-1.7v-21.3c0-10.6,0-15.1-3.5-15.1h-4.4V97c6.3-0.5,12.6-0.9,18.9-1.8L353.1,102.8L353.1,102.8z"/>
		<path class="st0" d="M418.1,116.9l-1.9,0.7c-6.1,2.4-12.8,6.4-12.8,12.6c0,3.1,1.7,5.5,5,5.5c3.8,0,7.2-2.4,9.7-5.1V116.9z
			 M418.1,113.1v-3c0-6.6-0.2-10.6-7.1-10.6c-2.4,0-5.1,0.7-7.1,2.1c0,5.7-2.5,10.4-7.1,10.4c-1.9,0-3.6-1.4-3.6-3.3
			c0-8.2,14-13.5,23.3-13.5c11.6,0,12.6,3.2,12.6,14.6V126c0,8.1,1.2,9.9,7.3,11l-4.1,6.2c-2.7,0-10.1-0.3-13.4-8.6
			c-4.3,3.4-10.9,8.6-16.7,8.6c-6,0-9.8-4.3-9.8-10.2c0-10.1,12.7-14.4,20.4-17.5L418.1,113.1z"/>
		<g>
			<path class="st0" d="M169.5,5.9h5.4V0h-33.1v5.9h9c4.1,0,4.8,0.4,4.8,2.7c0,3.9-5.7,22.2-14.5,44.1l-3.2,8.1l0,0l-1.7,4.2l-0.4,1
				l-7.1,17.7l-2.6-6.3c0,0,0,0,0,0l-1.6-3.9c1.6-0.4,3.2-0.8,4.9-1l2.9-7.2c-32.8,2.3-61,25-61.2,60c-0.2,35.1,27,52.8,60.4,53
				c12.9,0.1,28.1-4.2,39.9-9.8c0.9-11.2,1.4-14.8,1.4-16.1c0-0.8-0.7-1.9-2.2-1.9c-2,0-2.2,1.5-2.5,3c-2.1,11.4-22.1,18-31.6,17.9
				c-26.9-0.2-45.2-24.2-45-49.2c0.1-15.5,5.5-29.4,15.2-38.7l3.9,9.5l8,19.8c1.1,2.7,1.6,4.5,3.2,4.5c1.4,0,2.3-1.8,3-3.6
				l14.4-37.4l0,0l1.6-4.1c9.6,1.1,20.6,5.4,21.6,9.7c0.8,3.4,0.4,4.8,1.8,5.2c1.1,0.3,3.1,1.7,4.3-13.2c-7.5-3-16.7-6.9-25.2-8.2
				l20.7-54C165.9,6.8,166.5,5.9,169.5,5.9z"/>
			<path class="st0" d="M101.1,69.6c5.9-3.1,12.3-5.4,19-6.9l-12.5-30.8C106.6,29.4,97.5,7.7,97.5,7c0-0.9,0.7-1.1,2.2-1.1h10.6V0
				H64.2v5.9h5.4c4.7,0,5.2,0,14.7,22.2L63.8,82.4L39.6,24.9c-3-7.3-7.2-16.5-7.2-17.7c0-1.1,0.7-1.2,2.2-1.2h9.3V0H0v5.9h5.7
				c3.9,0,5,0.2,12.4,18.5l35.5,88.7c1.1,2.9,1.6,4.1,3.2,4.1c1.8,0,2.2-2.2,3.6-5.7L88,37.3L101.1,69.6z"/>
		</g>
	</g>
	<g>
		<path class="st0" d="M189.8,154.8h3.5v11.9c0,2.6,0.9,3.9,3.5,3.9c2.7,0,3.6-1.2,3.6-3.9v-11.9h3.4v12.3c0,4.2-2.5,6.5-7,6.5
			c-4.7,0-7-2.3-7-7.1L189.8,154.8L189.8,154.8z"/>
		<path class="st0" d="M218.3,154.8h3.7l5.3,9.3c0.8,1.4,1.5,2.8,2.1,4.4c-0.2-1.1-0.2-2.4-0.2-3.8v-10h3.2v18.5h-3.2l-5.8-9.6
			c-0.6-1-1.3-2.5-2.1-4.4c0.2,1.1,0.2,2.4,0.2,3.8v10.2h-3.2L218.3,154.8L218.3,154.8z"/>
		<path class="st0" d="M247.3,154.8h3.5v18.5h-3.5V154.8z"/>
		<path class="st0" d="M263.8,154.8h3.5l4.2,15.1l4.2-15.1h3.5l-5.5,18.5h-4.4L263.8,154.8z"/>
		<path class="st0" d="M292,154.8h12v3h-8.6v4.4h6.2v3h-6.2v5h8.9v3.2H292L292,154.8L292,154.8z"/>
		<path class="st0" d="M317.6,154.8h6.3c4.7,0,7,1.8,7,5.5c0,2.4-1.2,4.1-3.4,4.7l4.1,8.3h-3.7l-3.6-7.5H321v7.5h-3.4L317.6,154.8
			L317.6,154.8z M324.1,162.9c2.2,0,3.3-0.8,3.3-2.6c0-1.8-1.1-2.6-3.3-2.6h-3v5.1L324.1,162.9L324.1,162.9z"/>
		<path class="st0" d="M346.9,167.8c1,2,2.1,2.8,3.8,2.8c1.9,0,3-0.9,3-2.3c0-1.2-0.8-1.9-2.8-2.6c-1.7-0.6-3.2-1.1-4.4-1.9
			c-1.4-0.9-2.2-2.3-2.2-4.1c0-2.9,2.4-5,6-5c3.2,0,5.3,1.4,6.2,4.1l-3.2,1.1c-0.8-1.6-1.8-2.4-3.3-2.4c-1.5,0-2.5,0.8-2.5,2
			c0,1.7,1.8,2,4.7,3.3c3.1,1.3,4.6,2.5,4.6,5.4c0,3.4-2.3,5.5-6.3,5.5c-3.4,0-5.8-1.5-7-4.4L346.9,167.8z"/>
		<path class="st0" d="M370.8,154.8h3.5v18.5h-3.5V154.8z"/>
		<path class="st0" d="M392.5,157.9h-4.9v-3.1h13.2v3.1H396v15.5h-3.5L392.5,157.9L392.5,157.9z"/>
		<path class="st0" d="M417.3,166l-5.4-11.2h3.7l3.6,7.7l3.5-7.7h3.4l-5.3,11.2v7.3h-3.5L417.3,166L417.3,166z"/>
	</g>
</g>
<g>
	<path class="st0" d="M430.6,154.8v0.5h-1.1v3.5h-0.6v-3.5h-1.1v-0.5H430.6z"/>
	<path class="st0" d="M432.1,154.8l0.7,2.3c0.1,0.3,0.2,0.6,0.3,0.9c0.1-0.3,0.2-0.6,0.3-0.9l0.7-2.3h0.8v4h-0.5v-3.5
		c-0.2,0.5-0.2,0.8-0.3,0.9l-0.8,2.6h-0.4l-0.8-2.6c-0.1-0.2-0.2-0.5-0.3-0.9v3.5h-0.5v-4L432.1,154.8L432.1,154.8z"/>
</g>
</svg>
